<svg xmlns="http://www.w3.org/2000/svg" viewBox="0 0 800 1000" width="800" height="1000"><defs><radialGradient id="bg292" cx="50%" cy="38%" r="75%"><stop offset="0" stop-color="#FFFDF9"/><stop offset="1" stop-color="#F3EEE5"/></radialGradient>
      <linearGradient id="fl293" x1="0" y1="0" x2="0" y2="1"><stop offset="0" stop-color="#F3EEE5" stop-opacity="0"/><stop offset="1" stop-color="#F3EEE5"/></linearGradient><linearGradient id="fg276" x1="0" y1="0" x2="0" y2="1"><stop offset="0" stop-color="#5B86D6"/><stop offset=".55" stop-color="#2E5AAC"/><stop offset="1" stop-color="#1D3F80"/></linearGradient>
    <clipPath id="fc277"><path d="M140,500 C200,418 330,388 470,398 C560,404 622,430 662,470 L742,408 C728,460 728,540 742,592 L662,530 C622,570 560,596 470,602 C330,612 200,582 140,500 Z"/></clipPath>
    <linearGradient id="hl278" x1="0" y1="0" x2="0" y2="1"><stop offset="0" stop-color="#fff" stop-opacity=".75"/><stop offset="1" stop-color="#fff" stop-opacity="0"/></linearGradient>
    <filter id="bl279" x="-20%" y="-50%" width="140%" height="200%"><feGaussianBlur stdDeviation="6"/></filter><linearGradient id="fg280" x1="0" y1="0" x2="0" y2="1"><stop offset="0" stop-color="#F39A78"/><stop offset=".55" stop-color="#E8704A"/><stop offset="1" stop-color="#C4502C"/></linearGradient>
    <clipPath id="fc281"><path d="M140,500 C200,418 330,388 470,398 C560,404 622,430 662,470 L742,408 C728,460 728,540 742,592 L662,530 C622,570 560,596 470,602 C330,612 200,582 140,500 Z"/></clipPath>
    <linearGradient id="hl282" x1="0" y1="0" x2="0" y2="1"><stop offset="0" stop-color="#fff" stop-opacity=".75"/><stop offset="1" stop-color="#fff" stop-opacity="0"/></linearGradient>
    <filter id="bl283" x="-20%" y="-50%" width="140%" height="200%"><feGaussianBlur stdDeviation="6"/></filter><linearGradient id="fg284" x1="0" y1="0" x2="0" y2="1"><stop offset="0" stop-color="#F5D57F"/><stop offset=".55" stop-color="#E9B949"/><stop offset="1" stop-color="#C9962A"/></linearGradient>
    <clipPath id="fc285"><path d="M140,500 C200,418 330,388 470,398 C560,404 622,430 662,470 L742,408 C728,460 728,540 742,592 L662,530 C622,570 560,596 470,602 C330,612 200,582 140,500 Z"/></clipPath>
    <linearGradient id="hl286" x1="0" y1="0" x2="0" y2="1"><stop offset="0" stop-color="#fff" stop-opacity=".75"/><stop offset="1" stop-color="#fff" stop-opacity="0"/></linearGradient>
    <filter id="bl287" x="-20%" y="-50%" width="140%" height="200%"><feGaussianBlur stdDeviation="6"/></filter><linearGradient id="fg288" x1="0" y1="0" x2="0" y2="1"><stop offset="0" stop-color="#93A85E"/><stop offset=".55" stop-color="#6B7F3A"/><stop offset="1" stop-color="#4F6128"/></linearGradient>
    <clipPath id="fc289"><path d="M140,500 C200,418 330,388 470,398 C560,404 622,430 662,470 L742,408 C728,460 728,540 742,592 L662,530 C622,570 560,596 470,602 C330,612 200,582 140,500 Z"/></clipPath>
    <linearGradient id="hl290" x1="0" y1="0" x2="0" y2="1"><stop offset="0" stop-color="#fff" stop-opacity=".75"/><stop offset="1" stop-color="#fff" stop-opacity="0"/></linearGradient>
    <filter id="bl291" x="-20%" y="-50%" width="140%" height="200%"><feGaussianBlur stdDeviation="6"/></filter></defs><rect width="800" height="1000" fill="url(#bg292)"/><rect y="720" width="800" height="280" fill="url(#fl293)"/><line x1="252" y1="0" x2="252" y2="240" stroke="#1C2A3A" stroke-width="2" opacity=".5"/><g transform="translate(120 200) scale(.3) rotate(80 440 500)">
    <path d="M140,500 C200,418 330,388 470,398 C560,404 622,430 662,470 L742,408 C728,460 728,540 742,592 L662,530 C622,570 560,596 470,602 C330,612 200,582 140,500 Z" fill="url(#fg276)" stroke="#1D3F80" stroke-width="3"/>
    <g clip-path="url(#fc277)"><path d="M278.3076923076923,420 a14,14 0 0 0 28,0" fill="none" stroke="#FFFFFF" stroke-width="4" stroke-linecap="round" opacity=".85"/><path d="M308.3076923076923,420 a14,14 0 0 0 28,0" fill="none" stroke="#FFFFFF" stroke-width="4" stroke-linecap="round" opacity=".85"/><path d="M338.3076923076923,420 a14,14 0 0 0 28,0" fill="none" stroke="#FFFFFF" stroke-width="4" stroke-linecap="round" opacity=".85"/><path d="M368.3076923076923,420 a14,14 0 0 0 28,0" fill="none" stroke="#FFFFFF" stroke-width="4" stroke-linecap="round" opacity=".85"/><path d="M398.3076923076923,420 a14,14 0 0 0 28,0" fill="none" stroke="#FFFFFF" stroke-width="4" stroke-linecap="round" opacity=".85"/><path d="M428.3076923076923,420 a14,14 0 0 0 28,0" fill="none" stroke="#FFFFFF" stroke-width="4" stroke-linecap="round" opacity=".85"/><path d="M458.3076923076923,420 a14,14 0 0 0 28,0" fill="none" stroke="#FFFFFF" stroke-width="4" stroke-linecap="round" opacity=".85"/><path d="M488.3076923076923,420 a14,14 0 0 0 28,0" fill="none" stroke="#FFFFFF" stroke-width="4" stroke-linecap="round" opacity=".85"/><path d="M518.3076923076924,420 a14,14 0 0 0 28,0" fill="none" stroke="#FFFFFF" stroke-width="4" stroke-linecap="round" opacity=".85"/><path d="M548.3076923076924,420 a14,14 0 0 0 28,0" fill="none" stroke="#FFFFFF" stroke-width="4" stroke-linecap="round" opacity=".85"/><path d="M578.3076923076924,420 a14,14 0 0 0 28,0" fill="none" stroke="#FFFFFF" stroke-width="4" stroke-linecap="round" opacity=".85"/><path d="M608.3076923076924,420 a14,14 0 0 0 28,0" fill="none" stroke="#FFFFFF" stroke-width="4" stroke-linecap="round" opacity=".85"/><path d="M293.3076923076923,446 a14,14 0 0 0 28,0" fill="none" stroke="#FFFFFF" stroke-width="4" stroke-linecap="round" opacity=".85"/><path d="M323.3076923076923,446 a14,14 0 0 0 28,0" fill="none" stroke="#FFFFFF" stroke-width="4" stroke-linecap="round" opacity=".85"/><path d="M353.3076923076923,446 a14,14 0 0 0 28,0" fill="none" stroke="#FFFFFF" stroke-width="4" stroke-linecap="round" opacity=".85"/><path d="M383.3076923076923,446 a14,14 0 0 0 28,0" fill="none" stroke="#FFFFFF" stroke-width="4" stroke-linecap="round" opacity=".85"/><path d="M413.3076923076923,446 a14,14 0 0 0 28,0" fill="none" stroke="#FFFFFF" stroke-width="4" stroke-linecap="round" opacity=".85"/><path d="M443.3076923076923,446 a14,14 0 0 0 28,0" fill="none" stroke="#FFFFFF" stroke-width="4" stroke-linecap="round" opacity=".85"/><path d="M473.3076923076923,446 a14,14 0 0 0 28,0" fill="none" stroke="#FFFFFF" stroke-width="4" stroke-linecap="round" opacity=".85"/><path d="M503.3076923076924,446 a14,14 0 0 0 28,0" fill="none" stroke="#FFFFFF" stroke-width="4" stroke-linecap="round" opacity=".85"/><path d="M533.3076923076924,446 a14,14 0 0 0 28,0" fill="none" stroke="#FFFFFF" stroke-width="4" stroke-linecap="round" opacity=".85"/><path d="M563.3076923076924,446 a14,14 0 0 0 28,0" fill="none" stroke="#FFFFFF" stroke-width="4" stroke-linecap="round" opacity=".85"/><path d="M593.3076923076924,446 a14,14 0 0 0 28,0" fill="none" stroke="#FFFFFF" stroke-width="4" stroke-linecap="round" opacity=".85"/><path d="M623.3076923076924,446 a14,14 0 0 0 28,0" fill="none" stroke="#FFFFFF" stroke-width="4" stroke-linecap="round" opacity=".85"/><path d="M278.3076923076923,472 a14,14 0 0 0 28,0" fill="none" stroke="#FFFFFF" stroke-width="4" stroke-linecap="round" opacity=".85"/><path d="M308.3076923076923,472 a14,14 0 0 0 28,0" fill="none" stroke="#FFFFFF" stroke-width="4" stroke-linecap="round" opacity=".85"/><path d="M338.3076923076923,472 a14,14 0 0 0 28,0" fill="none" stroke="#FFFFFF" stroke-width="4" stroke-linecap="round" opacity=".85"/><path d="M368.3076923076923,472 a14,14 0 0 0 28,0" fill="none" stroke="#FFFFFF" stroke-width="4" stroke-linecap="round" opacity=".85"/><path d="M398.3076923076923,472 a14,14 0 0 0 28,0" fill="none" stroke="#FFFFFF" stroke-width="4" stroke-linecap="round" opacity=".85"/><path d="M428.3076923076923,472 a14,14 0 0 0 28,0" fill="none" stroke="#FFFFFF" stroke-width="4" stroke-linecap="round" opacity=".85"/><path d="M458.3076923076923,472 a14,14 0 0 0 28,0" fill="none" stroke="#FFFFFF" stroke-width="4" stroke-linecap="round" opacity=".85"/><path d="M488.3076923076923,472 a14,14 0 0 0 28,0" fill="none" stroke="#FFFFFF" stroke-width="4" stroke-linecap="round" opacity=".85"/><path d="M518.3076923076924,472 a14,14 0 0 0 28,0" fill="none" stroke="#FFFFFF" stroke-width="4" stroke-linecap="round" opacity=".85"/><path d="M548.3076923076924,472 a14,14 0 0 0 28,0" fill="none" stroke="#FFFFFF" stroke-width="4" stroke-linecap="round" opacity=".85"/><path d="M578.3076923076924,472 a14,14 0 0 0 28,0" fill="none" stroke="#FFFFFF" stroke-width="4" stroke-linecap="round" opacity=".85"/><path d="M608.3076923076924,472 a14,14 0 0 0 28,0" fill="none" stroke="#FFFFFF" stroke-width="4" stroke-linecap="round" opacity=".85"/><path d="M293.3076923076923,498 a14,14 0 0 0 28,0" fill="none" stroke="#FFFFFF" stroke-width="4" stroke-linecap="round" opacity=".85"/><path d="M323.3076923076923,498 a14,14 0 0 0 28,0" fill="none" stroke="#FFFFFF" stroke-width="4" stroke-linecap="round" opacity=".85"/><path d="M353.3076923076923,498 a14,14 0 0 0 28,0" fill="none" stroke="#FFFFFF" stroke-width="4" stroke-linecap="round" opacity=".85"/><path d="M383.3076923076923,498 a14,14 0 0 0 28,0" fill="none" stroke="#FFFFFF" stroke-width="4" stroke-linecap="round" opacity=".85"/><path d="M413.3076923076923,498 a14,14 0 0 0 28,0" fill="none" stroke="#FFFFFF" stroke-width="4" stroke-linecap="round" opacity=".85"/><path d="M443.3076923076923,498 a14,14 0 0 0 28,0" fill="none" stroke="#FFFFFF" stroke-width="4" stroke-linecap="round" opacity=".85"/><path d="M473.3076923076923,498 a14,14 0 0 0 28,0" fill="none" stroke="#FFFFFF" stroke-width="4" stroke-linecap="round" opacity=".85"/><path d="M503.3076923076924,498 a14,14 0 0 0 28,0" fill="none" stroke="#FFFFFF" stroke-width="4" stroke-linecap="round" opacity=".85"/><path d="M533.3076923076924,498 a14,14 0 0 0 28,0" fill="none" stroke="#FFFFFF" stroke-width="4" stroke-linecap="round" opacity=".85"/><path d="M563.3076923076924,498 a14,14 0 0 0 28,0" fill="none" stroke="#FFFFFF" stroke-width="4" stroke-linecap="round" opacity=".85"/><path d="M593.3076923076924,498 a14,14 0 0 0 28,0" fill="none" stroke="#FFFFFF" stroke-width="4" stroke-linecap="round" opacity=".85"/><path d="M623.3076923076924,498 a14,14 0 0 0 28,0" fill="none" stroke="#FFFFFF" stroke-width="4" stroke-linecap="round" opacity=".85"/><path d="M278.3076923076923,524 a14,14 0 0 0 28,0" fill="none" stroke="#FFFFFF" stroke-width="4" stroke-linecap="round" opacity=".85"/><path d="M308.3076923076923,524 a14,14 0 0 0 28,0" fill="none" stroke="#FFFFFF" stroke-width="4" stroke-linecap="round" opacity=".85"/><path d="M338.3076923076923,524 a14,14 0 0 0 28,0" fill="none" stroke="#FFFFFF" stroke-width="4" stroke-linecap="round" opacity=".85"/><path d="M368.3076923076923,524 a14,14 0 0 0 28,0" fill="none" stroke="#FFFFFF" stroke-width="4" stroke-linecap="round" opacity=".85"/><path d="M398.3076923076923,524 a14,14 0 0 0 28,0" fill="none" stroke="#FFFFFF" stroke-width="4" stroke-linecap="round" opacity=".85"/><path d="M428.3076923076923,524 a14,14 0 0 0 28,0" fill="none" stroke="#FFFFFF" stroke-width="4" stroke-linecap="round" opacity=".85"/><path d="M458.3076923076923,524 a14,14 0 0 0 28,0" fill="none" stroke="#FFFFFF" stroke-width="4" stroke-linecap="round" opacity=".85"/><path d="M488.3076923076923,524 a14,14 0 0 0 28,0" fill="none" stroke="#FFFFFF" stroke-width="4" stroke-linecap="round" opacity=".85"/><path d="M518.3076923076924,524 a14,14 0 0 0 28,0" fill="none" stroke="#FFFFFF" stroke-width="4" stroke-linecap="round" opacity=".85"/><path d="M548.3076923076924,524 a14,14 0 0 0 28,0" fill="none" stroke="#FFFFFF" stroke-width="4" stroke-linecap="round" opacity=".85"/><path d="M578.3076923076924,524 a14,14 0 0 0 28,0" fill="none" stroke="#FFFFFF" stroke-width="4" stroke-linecap="round" opacity=".85"/><path d="M608.3076923076924,524 a14,14 0 0 0 28,0" fill="none" stroke="#FFFFFF" stroke-width="4" stroke-linecap="round" opacity=".85"/><path d="M293.3076923076923,550 a14,14 0 0 0 28,0" fill="none" stroke="#FFFFFF" stroke-width="4" stroke-linecap="round" opacity=".85"/><path d="M323.3076923076923,550 a14,14 0 0 0 28,0" fill="none" stroke="#FFFFFF" stroke-width="4" stroke-linecap="round" opacity=".85"/><path d="M353.3076923076923,550 a14,14 0 0 0 28,0" fill="none" stroke="#FFFFFF" stroke-width="4" stroke-linecap="round" opacity=".85"/><path d="M383.3076923076923,550 a14,14 0 0 0 28,0" fill="none" stroke="#FFFFFF" stroke-width="4" stroke-linecap="round" opacity=".85"/><path d="M413.3076923076923,550 a14,14 0 0 0 28,0" fill="none" stroke="#FFFFFF" stroke-width="4" stroke-linecap="round" opacity=".85"/><path d="M443.3076923076923,550 a14,14 0 0 0 28,0" fill="none" stroke="#FFFFFF" stroke-width="4" stroke-linecap="round" opacity=".85"/><path d="M473.3076923076923,550 a14,14 0 0 0 28,0" fill="none" stroke="#FFFFFF" stroke-width="4" stroke-linecap="round" opacity=".85"/><path d="M503.3076923076924,550 a14,14 0 0 0 28,0" fill="none" stroke="#FFFFFF" stroke-width="4" stroke-linecap="round" opacity=".85"/><path d="M533.3076923076924,550 a14,14 0 0 0 28,0" fill="none" stroke="#FFFFFF" stroke-width="4" stroke-linecap="round" opacity=".85"/><path d="M563.3076923076924,550 a14,14 0 0 0 28,0" fill="none" stroke="#FFFFFF" stroke-width="4" stroke-linecap="round" opacity=".85"/><path d="M593.3076923076924,550 a14,14 0 0 0 28,0" fill="none" stroke="#FFFFFF" stroke-width="4" stroke-linecap="round" opacity=".85"/><path d="M623.3076923076924,550 a14,14 0 0 0 28,0" fill="none" stroke="#FFFFFF" stroke-width="4" stroke-linecap="round" opacity=".85"/><path d="M278.3076923076923,576 a14,14 0 0 0 28,0" fill="none" stroke="#FFFFFF" stroke-width="4" stroke-linecap="round" opacity=".85"/><path d="M308.3076923076923,576 a14,14 0 0 0 28,0" fill="none" stroke="#FFFFFF" stroke-width="4" stroke-linecap="round" opacity=".85"/><path d="M338.3076923076923,576 a14,14 0 0 0 28,0" fill="none" stroke="#FFFFFF" stroke-width="4" stroke-linecap="round" opacity=".85"/><path d="M368.3076923076923,576 a14,14 0 0 0 28,0" fill="none" stroke="#FFFFFF" stroke-width="4" stroke-linecap="round" opacity=".85"/><path d="M398.3076923076923,576 a14,14 0 0 0 28,0" fill="none" stroke="#FFFFFF" stroke-width="4" stroke-linecap="round" opacity=".85"/><path d="M428.3076923076923,576 a14,14 0 0 0 28,0" fill="none" stroke="#FFFFFF" stroke-width="4" stroke-linecap="round" opacity=".85"/><path d="M458.3076923076923,576 a14,14 0 0 0 28,0" fill="none" stroke="#FFFFFF" stroke-width="4" stroke-linecap="round" opacity=".85"/><path d="M488.3076923076923,576 a14,14 0 0 0 28,0" fill="none" stroke="#FFFFFF" stroke-width="4" stroke-linecap="round" opacity=".85"/><path d="M518.3076923076924,576 a14,14 0 0 0 28,0" fill="none" stroke="#FFFFFF" stroke-width="4" stroke-linecap="round" opacity=".85"/><path d="M548.3076923076924,576 a14,14 0 0 0 28,0" fill="none" stroke="#FFFFFF" stroke-width="4" stroke-linecap="round" opacity=".85"/><path d="M578.3076923076924,576 a14,14 0 0 0 28,0" fill="none" stroke="#FFFFFF" stroke-width="4" stroke-linecap="round" opacity=".85"/><path d="M608.3076923076924,576 a14,14 0 0 0 28,0" fill="none" stroke="#FFFFFF" stroke-width="4" stroke-linecap="round" opacity=".85"/></g>
    <path d="M250,436 C272,474 272,526 250,564" fill="none" stroke="#FFFFFF" stroke-width="5" stroke-linecap="round" opacity=".8"/>
    <path d="M668,478 L728,440 M668,500 L730,500 M668,522 L728,560" stroke="#FFFFFF" stroke-width="4" stroke-linecap="round" opacity=".7"/>
    <circle cx="200" cy="484" r="17" fill="#FFFFFF"/><circle cx="203" cy="485" r="9" fill="#1C2A3A"/><circle cx="199" cy="480" r="3.5" fill="#fff"/>
    <path d="M160,470 C260,414 420,398 560,420 C470,430 300,440 180,486 Z" fill="url(#hl278)" filter="url(#bl279)" clip-path="url(#fc277)"/>
    <ellipse cx="380" cy="428" rx="70" ry="7" fill="#fff" opacity=".85" transform="rotate(-4 380 428)"/>
    <ellipse cx="505" cy="424" rx="22" ry="4" fill="#fff" opacity=".7"/>
    <circle cx="612" cy="448" r="5" fill="#fff" opacity=".7"/>
  </g><line x1="402" y1="0" x2="402" y2="380" stroke="#1C2A3A" stroke-width="2" opacity=".5"/><g transform="translate(270 340) scale(.3) rotate(80 440 500)">
    <path d="M140,500 C200,418 330,388 470,398 C560,404 622,430 662,470 L742,408 C728,460 728,540 742,592 L662,530 C622,570 560,596 470,602 C330,612 200,582 140,500 Z" fill="url(#fg280)" stroke="#C4502C" stroke-width="3"/>
    <g clip-path="url(#fc281)"><path d="M300,380 C320,470 320,530 300,620" fill="none" stroke="#FFF6EC" stroke-width="12" stroke-linecap="round" opacity=".9"/><path d="M344,380 C364,470 364,530 344,620" fill="none" stroke="#FFF6EC" stroke-width="12" stroke-linecap="round" opacity=".9"/><path d="M388,380 C408,470 408,530 388,620" fill="none" stroke="#FFF6EC" stroke-width="12" stroke-linecap="round" opacity=".9"/><path d="M432,380 C452,470 452,530 432,620" fill="none" stroke="#FFF6EC" stroke-width="12" stroke-linecap="round" opacity=".9"/><path d="M476,380 C496,470 496,530 476,620" fill="none" stroke="#FFF6EC" stroke-width="12" stroke-linecap="round" opacity=".9"/><path d="M520,380 C540,470 540,530 520,620" fill="none" stroke="#FFF6EC" stroke-width="12" stroke-linecap="round" opacity=".9"/><path d="M564,380 C584,470 584,530 564,620" fill="none" stroke="#FFF6EC" stroke-width="12" stroke-linecap="round" opacity=".9"/><path d="M608,380 C628,470 628,530 608,620" fill="none" stroke="#FFF6EC" stroke-width="12" stroke-linecap="round" opacity=".9"/><path d="M652,380 C672,470 672,530 652,620" fill="none" stroke="#FFF6EC" stroke-width="12" stroke-linecap="round" opacity=".9"/></g>
    <path d="M250,436 C272,474 272,526 250,564" fill="none" stroke="#FFF6EC" stroke-width="5" stroke-linecap="round" opacity=".8"/>
    <path d="M668,478 L728,440 M668,500 L730,500 M668,522 L728,560" stroke="#FFF6EC" stroke-width="4" stroke-linecap="round" opacity=".7"/>
    <circle cx="200" cy="484" r="17" fill="#FFFFFF"/><circle cx="203" cy="485" r="9" fill="#1C2A3A"/><circle cx="199" cy="480" r="3.5" fill="#fff"/>
    <path d="M160,470 C260,414 420,398 560,420 C470,430 300,440 180,486 Z" fill="url(#hl282)" filter="url(#bl283)" clip-path="url(#fc281)"/>
    <ellipse cx="380" cy="428" rx="70" ry="7" fill="#fff" opacity=".85" transform="rotate(-4 380 428)"/>
    <ellipse cx="505" cy="424" rx="22" ry="4" fill="#fff" opacity=".7"/>
    <circle cx="612" cy="448" r="5" fill="#fff" opacity=".7"/>
  </g><line x1="552" y1="0" x2="552" y2="240" stroke="#1C2A3A" stroke-width="2" opacity=".5"/><g transform="translate(420 200) scale(.3) rotate(80 440 500)">
    <path d="M140,500 C200,418 330,388 470,398 C560,404 622,430 662,470 L742,408 C728,460 728,540 742,592 L662,530 C622,570 560,596 470,602 C330,612 200,582 140,500 Z" fill="url(#fg284)" stroke="#C9962A" stroke-width="3"/>
    <g clip-path="url(#fc285)"><g transform="translate(330,500)" opacity=".92"><path transform="rotate(0)" d="M0,0 C10,-14 10,-30 0,-40 C-10,-30 -10,-14 0,0Z" fill="#2E5AAC"/><path transform="rotate(90)" d="M0,0 C10,-14 10,-30 0,-40 C-10,-30 -10,-14 0,0Z" fill="#2E5AAC"/><path transform="rotate(180)" d="M0,0 C10,-14 10,-30 0,-40 C-10,-30 -10,-14 0,0Z" fill="#2E5AAC"/><path transform="rotate(270)" d="M0,0 C10,-14 10,-30 0,-40 C-10,-30 -10,-14 0,0Z" fill="#2E5AAC"/><circle r="8" fill="#FFFFFF"/></g><g transform="translate(420,500)" opacity=".92"><path transform="rotate(0)" d="M0,0 C10,-14 10,-30 0,-40 C-10,-30 -10,-14 0,0Z" fill="#2E5AAC"/><path transform="rotate(90)" d="M0,0 C10,-14 10,-30 0,-40 C-10,-30 -10,-14 0,0Z" fill="#2E5AAC"/><path transform="rotate(180)" d="M0,0 C10,-14 10,-30 0,-40 C-10,-30 -10,-14 0,0Z" fill="#2E5AAC"/><path transform="rotate(270)" d="M0,0 C10,-14 10,-30 0,-40 C-10,-30 -10,-14 0,0Z" fill="#2E5AAC"/><circle r="8" fill="#FFFFFF"/></g><g transform="translate(510,500)" opacity=".92"><path transform="rotate(0)" d="M0,0 C10,-14 10,-30 0,-40 C-10,-30 -10,-14 0,0Z" fill="#2E5AAC"/><path transform="rotate(90)" d="M0,0 C10,-14 10,-30 0,-40 C-10,-30 -10,-14 0,0Z" fill="#2E5AAC"/><path transform="rotate(180)" d="M0,0 C10,-14 10,-30 0,-40 C-10,-30 -10,-14 0,0Z" fill="#2E5AAC"/><path transform="rotate(270)" d="M0,0 C10,-14 10,-30 0,-40 C-10,-30 -10,-14 0,0Z" fill="#2E5AAC"/><circle r="8" fill="#FFFFFF"/></g><g transform="translate(600,500)" opacity=".92"><path transform="rotate(0)" d="M0,0 C10,-14 10,-30 0,-40 C-10,-30 -10,-14 0,0Z" fill="#2E5AAC"/><path transform="rotate(90)" d="M0,0 C10,-14 10,-30 0,-40 C-10,-30 -10,-14 0,0Z" fill="#2E5AAC"/><path transform="rotate(180)" d="M0,0 C10,-14 10,-30 0,-40 C-10,-30 -10,-14 0,0Z" fill="#2E5AAC"/><path transform="rotate(270)" d="M0,0 C10,-14 10,-30 0,-40 C-10,-30 -10,-14 0,0Z" fill="#2E5AAC"/><circle r="8" fill="#FFFFFF"/></g></g>
    <path d="M250,436 C272,474 272,526 250,564" fill="none" stroke="#2E5AAC" stroke-width="5" stroke-linecap="round" opacity=".8"/>
    <path d="M668,478 L728,440 M668,500 L730,500 M668,522 L728,560" stroke="#2E5AAC" stroke-width="4" stroke-linecap="round" opacity=".7"/>
    <circle cx="200" cy="484" r="17" fill="#FFFFFF"/><circle cx="203" cy="485" r="9" fill="#1C2A3A"/><circle cx="199" cy="480" r="3.5" fill="#fff"/>
    <path d="M160,470 C260,414 420,398 560,420 C470,430 300,440 180,486 Z" fill="url(#hl286)" filter="url(#bl287)" clip-path="url(#fc285)"/>
    <ellipse cx="380" cy="428" rx="70" ry="7" fill="#fff" opacity=".85" transform="rotate(-4 380 428)"/>
    <ellipse cx="505" cy="424" rx="22" ry="4" fill="#fff" opacity=".7"/>
    <circle cx="612" cy="448" r="5" fill="#fff" opacity=".7"/>
  </g><line x1="702" y1="0" x2="702" y2="380" stroke="#1C2A3A" stroke-width="2" opacity=".5"/><g transform="translate(570 340) scale(.3) rotate(80 440 500)">
    <path d="M140,500 C200,418 330,388 470,398 C560,404 622,430 662,470 L742,408 C728,460 728,540 742,592 L662,530 C622,570 560,596 470,602 C330,612 200,582 140,500 Z" fill="url(#fg288)" stroke="#4F6128" stroke-width="3"/>
    <g clip-path="url(#fc289)"><circle cx="308.5" cy="425" r="7" fill="#FAF7F2" opacity=".9"/><circle cx="342.5" cy="425" r="7" fill="#FAF7F2" opacity=".9"/><circle cx="376.5" cy="425" r="7" fill="#FAF7F2" opacity=".9"/><circle cx="410.5" cy="425" r="7" fill="#FAF7F2" opacity=".9"/><circle cx="444.5" cy="425" r="7" fill="#FAF7F2" opacity=".9"/><circle cx="478.5" cy="425" r="7" fill="#FAF7F2" opacity=".9"/><circle cx="512.5" cy="425" r="7" fill="#FAF7F2" opacity=".9"/><circle cx="546.5" cy="425" r="7" fill="#FAF7F2" opacity=".9"/><circle cx="580.5" cy="425" r="7" fill="#FAF7F2" opacity=".9"/><circle cx="614.5" cy="425" r="7" fill="#FAF7F2" opacity=".9"/><circle cx="648.5" cy="425" r="7" fill="#FAF7F2" opacity=".9"/><circle cx="325.5" cy="459" r="7" fill="#FAF7F2" opacity=".9"/><circle cx="359.5" cy="459" r="7" fill="#FAF7F2" opacity=".9"/><circle cx="393.5" cy="459" r="7" fill="#FAF7F2" opacity=".9"/><circle cx="427.5" cy="459" r="7" fill="#FAF7F2" opacity=".9"/><circle cx="461.5" cy="459" r="7" fill="#FAF7F2" opacity=".9"/><circle cx="495.5" cy="459" r="7" fill="#FAF7F2" opacity=".9"/><circle cx="529.5" cy="459" r="7" fill="#FAF7F2" opacity=".9"/><circle cx="563.5" cy="459" r="7" fill="#FAF7F2" opacity=".9"/><circle cx="597.5" cy="459" r="7" fill="#FAF7F2" opacity=".9"/><circle cx="631.5" cy="459" r="7" fill="#FAF7F2" opacity=".9"/><circle cx="308.5" cy="493" r="7" fill="#FAF7F2" opacity=".9"/><circle cx="342.5" cy="493" r="7" fill="#FAF7F2" opacity=".9"/><circle cx="376.5" cy="493" r="7" fill="#FAF7F2" opacity=".9"/><circle cx="410.5" cy="493" r="7" fill="#FAF7F2" opacity=".9"/><circle cx="444.5" cy="493" r="7" fill="#FAF7F2" opacity=".9"/><circle cx="478.5" cy="493" r="7" fill="#FAF7F2" opacity=".9"/><circle cx="512.5" cy="493" r="7" fill="#FAF7F2" opacity=".9"/><circle cx="546.5" cy="493" r="7" fill="#FAF7F2" opacity=".9"/><circle cx="580.5" cy="493" r="7" fill="#FAF7F2" opacity=".9"/><circle cx="614.5" cy="493" r="7" fill="#FAF7F2" opacity=".9"/><circle cx="648.5" cy="493" r="7" fill="#FAF7F2" opacity=".9"/><circle cx="325.5" cy="527" r="7" fill="#FAF7F2" opacity=".9"/><circle cx="359.5" cy="527" r="7" fill="#FAF7F2" opacity=".9"/><circle cx="393.5" cy="527" r="7" fill="#FAF7F2" opacity=".9"/><circle cx="427.5" cy="527" r="7" fill="#FAF7F2" opacity=".9"/><circle cx="461.5" cy="527" r="7" fill="#FAF7F2" opacity=".9"/><circle cx="495.5" cy="527" r="7" fill="#FAF7F2" opacity=".9"/><circle cx="529.5" cy="527" r="7" fill="#FAF7F2" opacity=".9"/><circle cx="563.5" cy="527" r="7" fill="#FAF7F2" opacity=".9"/><circle cx="597.5" cy="527" r="7" fill="#FAF7F2" opacity=".9"/><circle cx="631.5" cy="527" r="7" fill="#FAF7F2" opacity=".9"/><circle cx="308.5" cy="561" r="7" fill="#FAF7F2" opacity=".9"/><circle cx="342.5" cy="561" r="7" fill="#FAF7F2" opacity=".9"/><circle cx="376.5" cy="561" r="7" fill="#FAF7F2" opacity=".9"/><circle cx="410.5" cy="561" r="7" fill="#FAF7F2" opacity=".9"/><circle cx="444.5" cy="561" r="7" fill="#FAF7F2" opacity=".9"/><circle cx="478.5" cy="561" r="7" fill="#FAF7F2" opacity=".9"/><circle cx="512.5" cy="561" r="7" fill="#FAF7F2" opacity=".9"/><circle cx="546.5" cy="561" r="7" fill="#FAF7F2" opacity=".9"/><circle cx="580.5" cy="561" r="7" fill="#FAF7F2" opacity=".9"/><circle cx="614.5" cy="561" r="7" fill="#FAF7F2" opacity=".9"/><circle cx="648.5" cy="561" r="7" fill="#FAF7F2" opacity=".9"/><circle cx="325.5" cy="595" r="7" fill="#FAF7F2" opacity=".9"/><circle cx="359.5" cy="595" r="7" fill="#FAF7F2" opacity=".9"/><circle cx="393.5" cy="595" r="7" fill="#FAF7F2" opacity=".9"/><circle cx="427.5" cy="595" r="7" fill="#FAF7F2" opacity=".9"/><circle cx="461.5" cy="595" r="7" fill="#FAF7F2" opacity=".9"/><circle cx="495.5" cy="595" r="7" fill="#FAF7F2" opacity=".9"/><circle cx="529.5" cy="595" r="7" fill="#FAF7F2" opacity=".9"/><circle cx="563.5" cy="595" r="7" fill="#FAF7F2" opacity=".9"/><circle cx="597.5" cy="595" r="7" fill="#FAF7F2" opacity=".9"/><circle cx="631.5" cy="595" r="7" fill="#FAF7F2" opacity=".9"/></g>
    <path d="M250,436 C272,474 272,526 250,564" fill="none" stroke="#FAF7F2" stroke-width="5" stroke-linecap="round" opacity=".8"/>
    <path d="M668,478 L728,440 M668,500 L730,500 M668,522 L728,560" stroke="#FAF7F2" stroke-width="4" stroke-linecap="round" opacity=".7"/>
    <circle cx="200" cy="484" r="17" fill="#FFFFFF"/><circle cx="203" cy="485" r="9" fill="#1C2A3A"/><circle cx="199" cy="480" r="3.5" fill="#fff"/>
    <path d="M160,470 C260,414 420,398 560,420 C470,430 300,440 180,486 Z" fill="url(#hl290)" filter="url(#bl291)" clip-path="url(#fc289)"/>
    <ellipse cx="380" cy="428" rx="70" ry="7" fill="#fff" opacity=".85" transform="rotate(-4 380 428)"/>
    <ellipse cx="505" cy="424" rx="22" ry="4" fill="#fff" opacity=".7"/>
    <circle cx="612" cy="448" r="5" fill="#fff" opacity=".7"/>
  </g></svg>