<svg xmlns="http://www.w3.org/2000/svg" viewBox="0 0 800 1000" width="800" height="1000"><defs><radialGradient id="bg13" cx="50%" cy="38%" r="75%"><stop offset="0" stop-color="#FEF7F5"/><stop offset="1" stop-color="#F6E3DF"/></radialGradient>
      <linearGradient id="fl14" x1="0" y1="0" x2="0" y2="1"><stop offset="0" stop-color="#F6E3DF" stop-opacity="0"/><stop offset="1" stop-color="#F6E3DF"/></linearGradient><radialGradient id="sh8"><stop offset="0" stop-color="#1C2A3A" stop-opacity="0.18"/><stop offset="1" stop-color="#1C2A3A" stop-opacity="0"/></radialGradient><linearGradient id="fg9" x1="0" y1="0" x2="0" y2="1"><stop offset="0" stop-color="#F39A78"/><stop offset=".55" stop-color="#E8704A"/><stop offset="1" stop-color="#C4502C"/></linearGradient>
    <clipPath id="fc10"><path d="M140,500 C200,418 330,388 470,398 C560,404 622,430 662,470 L742,408 C728,460 728,540 742,592 L662,530 C622,570 560,596 470,602 C330,612 200,582 140,500 Z"/></clipPath>
    <linearGradient id="hl11" x1="0" y1="0" x2="0" y2="1"><stop offset="0" stop-color="#fff" stop-opacity=".75"/><stop offset="1" stop-color="#fff" stop-opacity="0"/></linearGradient>
    <filter id="bl12" x="-20%" y="-50%" width="140%" height="200%"><feGaussianBlur stdDeviation="6"/></filter></defs><rect width="800" height="1000" fill="url(#bg13)"/><rect y="720" width="800" height="280" fill="url(#fl14)"/><ellipse cx="430" cy="700" rx="300" ry="26" fill="url(#sh8)"/><g transform="translate(-40 0) rotate(-14 440 500)">
    <path d="M140,500 C200,418 330,388 470,398 C560,404 622,430 662,470 L742,408 C728,460 728,540 742,592 L662,530 C622,570 560,596 470,602 C330,612 200,582 140,500 Z" fill="url(#fg9)" stroke="#C4502C" stroke-width="3"/>
    <g clip-path="url(#fc10)"><path d="M300,380 C320,470 320,530 300,620" fill="none" stroke="#FFF6EC" stroke-width="12" stroke-linecap="round" opacity=".9"/><path d="M344,380 C364,470 364,530 344,620" fill="none" stroke="#FFF6EC" stroke-width="12" stroke-linecap="round" opacity=".9"/><path d="M388,380 C408,470 408,530 388,620" fill="none" stroke="#FFF6EC" stroke-width="12" stroke-linecap="round" opacity=".9"/><path d="M432,380 C452,470 452,530 432,620" fill="none" stroke="#FFF6EC" stroke-width="12" stroke-linecap="round" opacity=".9"/><path d="M476,380 C496,470 496,530 476,620" fill="none" stroke="#FFF6EC" stroke-width="12" stroke-linecap="round" opacity=".9"/><path d="M520,380 C540,470 540,530 520,620" fill="none" stroke="#FFF6EC" stroke-width="12" stroke-linecap="round" opacity=".9"/><path d="M564,380 C584,470 584,530 564,620" fill="none" stroke="#FFF6EC" stroke-width="12" stroke-linecap="round" opacity=".9"/><path d="M608,380 C628,470 628,530 608,620" fill="none" stroke="#FFF6EC" stroke-width="12" stroke-linecap="round" opacity=".9"/><path d="M652,380 C672,470 672,530 652,620" fill="none" stroke="#FFF6EC" stroke-width="12" stroke-linecap="round" opacity=".9"/></g>
    <path d="M250,436 C272,474 272,526 250,564" fill="none" stroke="#FFF6EC" stroke-width="5" stroke-linecap="round" opacity=".8"/>
    <path d="M668,478 L728,440 M668,500 L730,500 M668,522 L728,560" stroke="#FFF6EC" stroke-width="4" stroke-linecap="round" opacity=".7"/>
    <circle cx="200" cy="484" r="17" fill="#FFFFFF"/><circle cx="203" cy="485" r="9" fill="#1C2A3A"/><circle cx="199" cy="480" r="3.5" fill="#fff"/>
    <path d="M160,470 C260,414 420,398 560,420 C470,430 300,440 180,486 Z" fill="url(#hl11)" filter="url(#bl12)" clip-path="url(#fc10)"/>
    <ellipse cx="380" cy="428" rx="70" ry="7" fill="#fff" opacity=".85" transform="rotate(-4 380 428)"/>
    <ellipse cx="505" cy="424" rx="22" ry="4" fill="#fff" opacity=".7"/>
    <circle cx="612" cy="448" r="5" fill="#fff" opacity=".7"/>
  </g></svg>