<svg xmlns="http://www.w3.org/2000/svg" viewBox="0 0 800 1000" width="800" height="1000"><defs><radialGradient id="bg173" cx="50%" cy="38%" r="75%"><stop offset="0" stop-color="#FFFDF9"/><stop offset="1" stop-color="#F3EEE5"/></radialGradient>
      <linearGradient id="fl174" x1="0" y1="0" x2="0" y2="1"><stop offset="0" stop-color="#F3EEE5" stop-opacity="0"/><stop offset="1" stop-color="#F3EEE5"/></linearGradient><linearGradient id="dp170" x1="0" y1="0" x2="1" y2="0"><stop offset="0" stop-color="#DAD4C8"/><stop offset=".3" stop-color="#FFFFFF"/><stop offset=".65" stop-color="#F4F1EA"/><stop offset="1" stop-color="#DAD4C8"/></linearGradient><filter id="db171"><feGaussianBlur stdDeviation="4"/></filter><radialGradient id="sh172"><stop offset="0" stop-color="#1C2A3A" stop-opacity="0.18"/><stop offset="1" stop-color="#1C2A3A" stop-opacity="0"/></radialGradient></defs><rect width="800" height="1000" fill="url(#bg173)"/><rect y="720" width="800" height="280" fill="url(#fl174)"/><g transform="translate(400 560) scale(1)"><ellipse cx="0" cy="300" rx="140" ry="20" fill="url(#sh172)"/>
    <path d="M-8,-390 L60,-450 L66,-442 L4,-380Z" fill="#C8CDD3"/><rect x="-14" y="-395" width="28" height="40" rx="6" fill="#AEB5BD"/>
    <path d="M-40,-360 C-40,-330 -100,-300 -100,-240 L-100,280 C-100,300 100,300 100,280 L100,-240 C100,-300 40,-330 40,-360Z" fill="url(#dp170)"/>
    <rect x="-100" y="20" width="200" height="80" fill="#fff" opacity=".96"/>
    <g transform="translate(-60 60)"><path transform="rotate(0)" d="M0,0 C7,-10 7,-20 0,-26 C-7,-20 -7,-10 0,0Z" fill="#2E5AAC"/><path transform="rotate(90)" d="M0,0 C7,-10 7,-20 0,-26 C-7,-20 -7,-10 0,0Z" fill="#2E5AAC"/><path transform="rotate(180)" d="M0,0 C7,-10 7,-20 0,-26 C-7,-20 -7,-10 0,0Z" fill="#2E5AAC"/><path transform="rotate(270)" d="M0,0 C7,-10 7,-20 0,-26 C-7,-20 -7,-10 0,0Z" fill="#2E5AAC"/></g><g transform="translate(0 60)"><path transform="rotate(0)" d="M0,0 C7,-10 7,-20 0,-26 C-7,-20 -7,-10 0,0Z" fill="#2E5AAC"/><path transform="rotate(90)" d="M0,0 C7,-10 7,-20 0,-26 C-7,-20 -7,-10 0,0Z" fill="#2E5AAC"/><path transform="rotate(180)" d="M0,0 C7,-10 7,-20 0,-26 C-7,-20 -7,-10 0,0Z" fill="#2E5AAC"/><path transform="rotate(270)" d="M0,0 C7,-10 7,-20 0,-26 C-7,-20 -7,-10 0,0Z" fill="#2E5AAC"/></g><g transform="translate(60 60)"><path transform="rotate(0)" d="M0,0 C7,-10 7,-20 0,-26 C-7,-20 -7,-10 0,0Z" fill="#2E5AAC"/><path transform="rotate(90)" d="M0,0 C7,-10 7,-20 0,-26 C-7,-20 -7,-10 0,0Z" fill="#2E5AAC"/><path transform="rotate(180)" d="M0,0 C7,-10 7,-20 0,-26 C-7,-20 -7,-10 0,0Z" fill="#2E5AAC"/><path transform="rotate(270)" d="M0,0 C7,-10 7,-20 0,-26 C-7,-20 -7,-10 0,0Z" fill="#2E5AAC"/></g>
    <path d="M-66,-220 L-66,240" stroke="#fff" stroke-width="16" stroke-linecap="round" opacity=".55" filter="url(#db171)"/>
    <ellipse cx="-62" cy="-200" rx="6" ry="30" fill="#fff" opacity=".85"/>
  </g></svg>