<svg xmlns="http://www.w3.org/2000/svg" viewBox="0 0 800 800" width="800" height="800"><defs><radialGradient id="bg569" cx="50%" cy="38%" r="75%"><stop offset="0" stop-color="#F9FAF4"/><stop offset="1" stop-color="#E7ECDA"/></radialGradient>
      <linearGradient id="fl570" x1="0" y1="0" x2="0" y2="1"><stop offset="0" stop-color="#E7ECDA" stop-opacity="0"/><stop offset="1" stop-color="#E7ECDA"/></linearGradient><radialGradient id="ds544" cx="45%" cy="40%" r="70%"><stop offset="0" stop-color="#93A85E"/><stop offset=".7" stop-color="#6B7F3A"/><stop offset="1" stop-color="#4F6128"/></radialGradient><clipPath id="dc545"><path d="M140,500 C200,418 330,388 470,398 C560,404 622,430 662,470 L742,408 C728,460 728,540 742,592 L662,530 C622,570 560,596 470,602 C330,612 200,582 140,500 Z"/></clipPath></defs><rect width="800" height="800" fill="url(#bg569)"/><rect y="576" width="800" height="224.00000000000003" fill="url(#fl570)"/><g transform="translate(20 -60) scale(0.9) rotate(12 440 500)">
    <path d="M140,500 C200,418 330,388 470,398 C560,404 622,430 662,470 L742,408 C728,460 728,540 742,592 L662,530 C622,570 560,596 470,602 C330,612 200,582 140,500 Z" fill="#1C2A3A" opacity=".12" transform="translate(8 22)"/>
    <path d="M140,500 C200,418 330,388 470,398 C560,404 622,430 662,470 L742,408 C728,460 728,540 742,592 L662,530 C622,570 560,596 470,602 C330,612 200,582 140,500 Z" fill="url(#ds544)" stroke="#4F6128" stroke-width="3"/>
    <path d="M140,500 C200,418 330,388 470,398 C560,404 622,430 662,470 L742,408 C728,460 728,540 742,592 L662,530 C622,570 560,596 470,602 C330,612 200,582 140,500 Z" fill="#6B7F3A" transform="translate(440 500) scale(.82) translate(-440 -500)" stroke="#4F6128" stroke-opacity=".35" stroke-width="4"/>
    <ellipse cx="360" cy="470" rx="26" ry="19" fill="#4F6128" transform="rotate(0 360 470)"/><ellipse cx="352" cy="463" rx="8" ry="4" fill="#fff" opacity=".5"/><ellipse cx="420" cy="510" rx="26" ry="19" fill="#6B7F3A" transform="rotate(30 420 510)"/><ellipse cx="412" cy="503" rx="8" ry="4" fill="#fff" opacity=".5"/><ellipse cx="480" cy="470" rx="26" ry="19" fill="#4F6128" transform="rotate(60 480 470)"/><ellipse cx="472" cy="463" rx="8" ry="4" fill="#fff" opacity=".5"/><ellipse cx="540" cy="505" rx="26" ry="19" fill="#6B7F3A" transform="rotate(90 540 505)"/><ellipse cx="532" cy="498" rx="8" ry="4" fill="#fff" opacity=".5"/><ellipse cx="420" cy="450" rx="26" ry="19" fill="#4F6128" transform="rotate(120 420 450)"/><ellipse cx="412" cy="443" rx="8" ry="4" fill="#fff" opacity=".5"/><ellipse cx="500" cy="530" rx="26" ry="19" fill="#6B7F3A" transform="rotate(150 500 530)"/><ellipse cx="492" cy="523" rx="8" ry="4" fill="#fff" opacity=".5"/>
    <circle cx="200" cy="486" r="14" fill="#fff"/><circle cx="202" cy="487" r="7" fill="#1C2A3A"/>
    <ellipse cx="360" cy="420" rx="80" ry="6" fill="#fff" opacity=".8"/>
  </g></svg>