<svg xmlns="http://www.w3.org/2000/svg" viewBox="0 0 800 1000" width="800" height="1000"><defs><radialGradient id="bg309" cx="50%" cy="38%" r="75%"><stop offset="0" stop-color="#FFFDF9"/><stop offset="1" stop-color="#F3EEE5"/></radialGradient>
      <linearGradient id="fl310" x1="0" y1="0" x2="0" y2="1"><stop offset="0" stop-color="#F3EEE5" stop-opacity="0"/><stop offset="1" stop-color="#F3EEE5"/></linearGradient><linearGradient id="tileGloss" x1="0" y1="0" x2="1" y2="1"><stop offset="0" stop-color="#fff" stop-opacity=".6"/><stop offset=".4" stop-color="#fff" stop-opacity="0"/></linearGradient></defs><rect width="800" height="1000" fill="url(#bg309)"/><rect y="720" width="800" height="280" fill="url(#fl310)"/><g transform="translate(400 500) scale(2.8)"><rect x="-100" y="-100" width="200" height="200" rx="6" fill="#FDFCF8" stroke="#E6E0D5" stroke-width="2"/>
    <path d="M-100,-100 m0,0 a40,40 0 0 0 40,40" fill="none" stroke="#2E5AAC" stroke-width="6" opacity=".7"/><path d="M100,-100 m-40,0 a40,40 0 0 1 40,40" fill="none" stroke="#2E5AAC" stroke-width="6" opacity=".7"/><path d="M-100,100 m0,0 a40,40 0 0 1 40,-40" fill="none" stroke="#2E5AAC" stroke-width="6" opacity=".7"/><path d="M100,100 m-40,0 a40,40 0 0 0 40,-40" fill="none" stroke="#2E5AAC" stroke-width="6" opacity=".7"/>
    <path transform="rotate(0)" d="M0,0 C18,-24 18,-52 0,-70 C-18,-52 -18,-24 0,0Z" fill="#2E5AAC"/><path transform="rotate(90)" d="M0,0 C18,-24 18,-52 0,-70 C-18,-52 -18,-24 0,0Z" fill="#2E5AAC"/><path transform="rotate(180)" d="M0,0 C18,-24 18,-52 0,-70 C-18,-52 -18,-24 0,0Z" fill="#2E5AAC"/><path transform="rotate(270)" d="M0,0 C18,-24 18,-52 0,-70 C-18,-52 -18,-24 0,0Z" fill="#2E5AAC"/><circle r="14" fill="#E9B949"/><rect x="-100" y="-100" width="200" height="200" rx="6" fill="url(#tileGloss)"/></g></svg>